<svg width="1000" height="1000" viewBox="0 0 1000 1000" xmlns="http://www.w3.org/2000/svg"><defs/><path fill="#ed3926" transform="matrix(0.37071561561316446 0 0 0.37071561561316446 3.649849429443646 -10.716837864686907)" d="M 638.27740997906 1622.00126785922 L 623.67740997906 1622.00126785922 C 568.27740997906 1622.00126785922 523.27740997906 1576.90126785922 523.27740997906 1521.60126785922 L 523.27740997906 1476.40126785922 L 563.47740997906 1476.40126785922 L 563.47740997906 1521.60126785922 C 563.47740997906 1554.80126785922 590.47740997906 1581.90126785922 623.77740997906 1581.90126785922 L 638.37740997906 1581.90126785922 C 671.57740997906 1581.90126785922 698.67740997906 1554.90126785922 698.67740997906 1521.60126785922 L 698.67740997906 1388.30126785922 C 698.67740997906 1382.90126785922 700.87740997906 1377.70126785922 704.67740997906 1373.90126785922 C 708.57740997906 1370.10126785922 713.77740997906 1368.10126785922 719.17740997906 1368.20126785922 L 800.77740997906 1370.00126785922 L 799.87740997906 1410.20126785922 L 738.87740997906 1408.80126785922 L 738.87740997906 1521.60126785922 C 738.67740997906 1577.00126785922 693.57740997906 1622.00126785922 638.27740997906 1622.00126785922 Z"/><path fill="#127ac1" transform="matrix(0.37071561561316446 0 0 0.37071561561316446 3.649849429443646 -10.716837864686907)" d="M 646.77740997906 1538.50126785922 L 606.57740997906 1537.60126785922 L 607.97740997906 1476.60126785922 L 495.17740997906 1476.60126785922 C 439.77740997906 1476.60126785922 394.77740997906 1431.50126785922 394.77740997906 1376.20126785922 L 394.77740997906 1361.60126785922 C 394.77740997906 1306.20126785922 439.87740997906 1261.20126785922 495.17740997906 1261.20126785922 L 540.67740997906 1261.20126785922 L 540.67740997906 1301.40126785922 L 495.17740997906 1301.40126785922 C 461.97740997906 1301.40126785922 434.87740997906 1328.40126785922 434.87740997906 1361.70126785922 L 434.87740997906 1376.30126785922 C 434.87740997906 1409.50126785922 461.87740997906 1436.60126785922 495.17740997906 1436.60126785922 L 628.47740997906 1436.60126785922 C 633.87740997906 1436.60126785922 639.07740997906 1438.80126785922 642.87740997906 1442.60126785922 C 646.67740997906 1446.50126785922 648.67740997906 1451.70126785922 648.57740997906 1457.10126785922 L 646.77740997906 1538.50126785922 Z"/><path fill="#ed3926" transform="matrix(0.37071561561316446 0 0 0.37071561561316446 3.649849429443646 -10.716837864686907)" d="M 560.87740997906 1387.10126785922 C 560.77740997906 1387.10126785922 560.57740997906 1387.10126785922 560.47740997906 1387.10126785922 L 478.87740997906 1385.30126785922 L 479.77740997906 1345.10126785922 L 540.77740997906 1346.50126785922 L 540.77740997906 1233.70126785922 C 540.77740997906 1178.30126785922 585.87740997906 1133.30126785922 641.17740997906 1133.30126785922 L 655.77740997906 1133.30126785922 C 711.17740997906 1133.30126785922 756.17740997906 1178.40126785922 756.17740997906 1233.70126785922 L 756.17740997906 1278.70126785922 L 715.97740997906 1278.70126785922 L 715.97740997906 1233.70126785922 C 715.97740997906 1200.50126785922 688.97740997906 1173.40126785922 655.67740997906 1173.40126785922 L 641.07740997906 1173.40126785922 C 607.87740997906 1173.40126785922 580.77740997906 1200.40126785922 580.77740997906 1233.70126785922 L 580.77740997906 1367.00126785922 C 580.77740997906 1372.40126785922 578.57740997906 1377.60126785922 574.77740997906 1381.40126785922 C 571.17740997906 1385.00126785922 566.17740997906 1387.10126785922 560.87740997906 1387.10126785922 Z"/><path fill="#127ac1" transform="matrix(0.37071561561316446 0 0 0.37071561561316446 3.649849429443646 -10.716837864686907)" d="M 784.27740997906 1494.20126785922 L 738.67740997906 1494.20126785922 L 738.67740997906 1454.00126785922 L 784.27740997906 1454.00126785922 C 817.47740997906 1454.00126785922 844.57740997906 1427.00126785922 844.57740997906 1393.70126785922 L 844.57740997906 1379.10126785922 C 844.57740997906 1345.90126785922 817.57740997906 1318.80126785922 784.27740997906 1318.80126785922 L 650.97740997906 1318.80126785922 C 645.57740997906 1318.80126785922 640.37740997906 1316.60126785922 636.57740997906 1312.80126785922 C 632.77740997906 1308.90126785922 630.77740997906 1303.70126785922 630.87740997906 1298.30126785922 L 632.67740997906 1216.70126785922 L 672.87740997906 1217.60126785922 L 671.47740997906 1278.60126785922 L 784.27740997906 1278.60126785922 C 839.67740997906 1278.60126785922 884.67740997906 1323.70126785922 884.67740997906 1379.00126785922 L 884.67740997906 1393.60126785922 C 884.77740997906 1449.10126785922 839.67740997906 1494.20126785922 784.27740997906 1494.20126785922 Z"/><path id="text" fill="#333333" transform="matrix(0.7022042906468312 0 0 0.7022042906468312 203.9473608254475 36.89169623429001)" d="M 213.80789051482 644.27923434828 L 213.80789051482 574.4610525301 L 238.21698142391 574.4610525301 C 243.08061778754 574.4610525301 247.09198142391 575.29627980283 250.251072333 576.96673434828 C 253.41016324209 578.63718889373 255.76243596936 580.87582525737 257.30789051482 583.68264343919 C 258.85334506027 586.48946162101 259.626072333 589.59741616646 259.626072333 593.00650707555 C 259.626072333 596.00650707555 259.09766324209 598.48377980283 258.04084506027 600.43832525737 C 256.98402687845 602.39287071192 255.59766324209 603.93832525737 253.88175415118 605.07468889373 C 252.16584506027 606.2110525301 250.30789051482 607.05196162101 248.30789051482 607.59741616646 L 248.30789051482 608.27923434828 C 250.44425415118 608.41559798464 252.59198142391 609.16559798464 254.751072333 610.52923434828 C 256.91016324209 611.89287071192 258.71698142391 613.84741616646 260.17152687845 616.39287071192 C 261.626072333 618.93832525737 262.35334506027 622.05196162101 262.35334506027 625.73377980283 C 262.35334506027 629.23377980283 261.55789051482 632.38150707555 259.96698142391 635.17696162101 C 258.376072333 637.97241616646 255.86470869663 640.18832525737 252.43289051482 641.82468889373 C 249.001072333 643.4610525301 244.53516324209 644.27923434828 239.03516324209 644.27923434828 L 213.80789051482 644.27923434828 Z M 222.26243596936 636.77923434828 L 239.03516324209 636.77923434828 C 244.55789051482 636.77923434828 248.48402687845 635.70537071192 250.813572333 633.55764343919 C 253.14311778754 631.40991616646 254.30789051482 628.80196162101 254.30789051482 625.73377980283 C 254.30789051482 623.37014343919 253.70561778754 621.18264343919 252.501072333 619.17127980283 C 251.29652687845 617.15991616646 249.58061778754 615.54627980283 247.35334506027 614.33037071192 C 245.126072333 613.11446162101 242.48970869663 612.50650707555 239.44425415118 612.50650707555 L 222.26243596936 612.50650707555 L 222.26243596936 636.77923434828 Z M 222.26243596936 605.14287071192 L 237.94425415118 605.14287071192 C 240.48970869663 605.14287071192 242.79084506027 604.64287071192 244.84766324209 603.64287071192 C 246.90448142391 602.64287071192 248.54084506027 601.23377980283 249.75675415118 599.41559798464 C 250.97266324209 597.59741616646 251.58061778754 595.4610525301 251.58061778754 593.00650707555 C 251.58061778754 589.93832525737 250.51243596936 587.33037071192 248.376072333 585.18264343919 C 246.23970869663 583.03491616646 242.85334506027 581.9610525301 238.21698142391 581.9610525301 L 222.26243596936 581.9610525301 L 222.26243596936 605.14287071192 Z M 276.26243596936 644.27923434828 L 276.26243596936 574.4610525301 L 284.71698142391 574.4610525301 L 284.71698142391 636.77923434828 L 317.17152687845 636.77923434828 L 317.17152687845 644.27923434828 L 276.26243596936 644.27923434828 Z M 338.71698142391 574.4610525301 L 338.71698142391 644.27923434828 L 330.26243596936 644.27923434828 L 330.26243596936 574.4610525301 L 338.71698142391 574.4610525301 Z M 358.48970869663 574.4610525301 L 379.21698142391 633.23377980283 L 380.03516324209 633.23377980283 L 400.76243596936 574.4610525301 L 409.626072333 574.4610525301 L 383.98970869663 644.27923434828 L 375.26243596936 644.27923434828 L 349.626072333 574.4610525301 L 358.48970869663 574.4610525301 Z M 420.53516324209 644.27923434828 L 420.53516324209 574.4610525301 L 462.67152687845 574.4610525301 L 462.67152687845 581.9610525301 L 428.98970869663 581.9610525301 L 428.98970869663 605.55196162101 L 460.48970869663 605.55196162101 L 460.48970869663 613.05196162101 L 428.98970869663 613.05196162101 L 428.98970869663 636.77923434828 L 463.21698142391 636.77923434828 L 463.21698142391 644.27923434828 L 420.53516324209 644.27923434828 Z M 516.126072333 591.91559798464 C 515.71698142391 588.4610525301 514.05789051482 585.77923434828 511.14879960572 583.87014343919 C 508.23970869663 581.9610525301 504.67152687845 581.00650707555 500.44425415118 581.00650707555 C 497.35334506027 581.00650707555 494.65448142391 581.50650707555 492.34766324209 582.50650707555 C 490.04084506027 583.50650707555 488.24539051482 584.88150707555 486.96129960572 586.63150707555 C 485.67720869663 588.38150707555 485.03516324209 590.37014343919 485.03516324209 592.59741616646 C 485.03516324209 594.4610525301 485.48402687845 596.05764343919 486.38175415118 597.38718889373 C 487.27948142391 598.71673434828 488.43289051482 599.81900707555 489.84198142391 600.69400707555 C 491.251072333 601.56900707555 492.72834506027 602.28491616646 494.27379960572 602.84173434828 C 495.81925415118 603.3985525301 497.23970869663 603.84741616646 498.53516324209 604.18832525737 L 505.626072333 606.09741616646 C 507.44425415118 606.57468889373 509.47266324209 607.23377980283 511.71129960572 608.07468889373 C 513.94993596936 608.91559798464 516.09766324209 610.05764343919 518.15448142391 611.50082525737 C 520.21129960572 612.94400707555 521.91016324209 614.79059798464 523.251072333 617.04059798464 C 524.59198142391 619.29059798464 525.26243596936 622.05196162101 525.26243596936 625.32468889373 C 525.26243596936 629.09741616646 524.27948142391 632.50650707555 522.313572333 635.55196162101 C 520.34766324209 638.59741616646 517.48402687845 641.01787071192 513.72266324209 642.81332525737 C 509.96129960572 644.60877980283 505.39879960572 645.50650707555 500.03516324209 645.50650707555 C 495.03516324209 645.50650707555 490.71129960572 644.69968889373 487.063572333 643.0860525301 C 483.41584506027 641.47241616646 480.55220869663 639.22241616646 478.47266324209 636.3360525301 C 476.39311778754 633.44968889373 475.21698142391 630.09741616646 474.94425415118 626.27923434828 L 483.67152687845 626.27923434828 C 483.89879960572 628.91559798464 484.79084506027 631.09173434828 486.34766324209 632.80764343919 C 487.90448142391 634.5235525301 489.88175415118 635.79627980283 492.27948142391 636.62582525737 C 494.67720869663 637.45537071192 497.26243596936 637.87014343919 500.03516324209 637.87014343919 C 503.26243596936 637.87014343919 506.16016324209 637.34173434828 508.72834506027 636.28491616646 C 511.29652687845 635.22809798464 513.33061778754 633.75082525737 514.83061778754 631.85309798464 C 516.33061778754 629.95537071192 517.08061778754 627.73377980283 517.08061778754 625.18832525737 C 517.08061778754 622.87014343919 516.43289051482 620.98377980283 515.13743596936 619.52923434828 C 513.84198142391 618.07468889373 512.13743596936 616.89287071192 510.02379960572 615.98377980283 C 507.91016324209 615.07468889373 505.626072333 614.27923434828 503.17152687845 613.59741616646 L 494.58061778754 611.14287071192 C 489.126072333 609.57468889373 484.80789051482 607.3360525301 481.626072333 604.42696162101 C 478.44425415118 601.51787071192 476.85334506027 597.7110525301 476.85334506027 593.00650707555 C 476.85334506027 589.09741616646 477.91584506027 585.68264343919 480.04084506027 582.76218889373 C 482.16584506027 579.84173434828 485.02948142391 577.56900707555 488.63175415118 575.94400707555 C 492.23402687845 574.31900707555 496.26243596936 573.50650707555 500.71698142391 573.50650707555 C 505.21698142391 573.50650707555 509.21698142391 574.30764343919 512.71698142391 575.90991616646 C 516.21698142391 577.51218889373 518.99539051482 579.69968889373 521.05220869663 582.47241616646 C 523.10902687845 585.24514343919 524.19425415118 588.39287071192 524.30789051482 591.91559798464 L 516.126072333 591.91559798464 Z M 566.17152687845 644.27923434828 L 566.17152687845 574.4610525301 L 574.626072333 574.4610525301 L 574.626072333 605.55196162101 L 611.85334506027 605.55196162101 L 611.85334506027 574.4610525301 L 620.30789051482 574.4610525301 L 620.30789051482 644.27923434828 L 611.85334506027 644.27923434828 L 611.85334506027 613.05196162101 L 574.626072333 613.05196162101 L 574.626072333 644.27923434828 L 566.17152687845 644.27923434828 Z M 637.21698142391 644.27923434828 L 637.21698142391 574.4610525301 L 679.35334506027 574.4610525301 L 679.35334506027 581.9610525301 L 645.67152687845 581.9610525301 L 645.67152687845 605.55196162101 L 677.17152687845 605.55196162101 L 677.17152687845 613.05196162101 L 645.67152687845 613.05196162101 L 645.67152687845 636.77923434828 L 679.89879960572 636.77923434828 L 679.89879960572 644.27923434828 L 637.21698142391 644.27923434828 Z M 697.48970869663 644.27923434828 L 688.626072333 644.27923434828 L 714.26243596936 574.4610525301 L 722.98970869663 574.4610525301 L 748.626072333 644.27923434828 L 739.76243596936 644.27923434828 L 718.89879960572 585.50650707555 L 718.35334506027 585.50650707555 L 697.48970869663 644.27923434828 Z M 700.76243596936 617.00650707555 L 736.48970869663 617.00650707555 L 736.48970869663 624.50650707555 L 700.76243596936 624.50650707555 L 700.76243596936 617.00650707555 Z M 759.53516324209 644.27923434828 L 759.53516324209 574.4610525301 L 767.98970869663 574.4610525301 L 767.98970869663 636.77923434828 L 800.44425415118 636.77923434828 L 800.44425415118 644.27923434828 L 759.53516324209 644.27923434828 Z M 800.44425415118 581.9610525301 L 800.44425415118 574.4610525301 L 852.80789051482 574.4610525301 L 852.80789051482 581.9610525301 L 830.85334506027 581.9610525301 L 830.85334506027 644.27923434828 L 822.39879960572 644.27923434828 L 822.39879960572 581.9610525301 L 800.44425415118 581.9610525301 Z M 865.89879960572 644.27923434828 L 865.89879960572 574.4610525301 L 874.35334506027 574.4610525301 L 874.35334506027 605.55196162101 L 911.58061778754 605.55196162101 L 911.58061778754 574.4610525301 L 920.03516324209 574.4610525301 L 920.03516324209 644.27923434828 L 911.58061778754 644.27923434828 L 911.58061778754 613.05196162101 L 874.35334506027 613.05196162101 L 874.35334506027 644.27923434828 L 865.89879960572 644.27923434828 Z"/><path id="text" fill="#127ac1" transform="matrix(0.3511021453234156 0 0 0.3511021453234156 206.9157539130843 107.54303296192855)" d="M 419.16128102964 1288.55846869655 L 419.16128102964 1218.74028687837 L 442.75219012054 1218.74028687837 C 448.22946284782 1218.74028687837 452.71241739327 1219.72324142382 456.20105375691 1221.68915051473 C 459.68969012054 1223.65505960564 462.27491739327 1226.30846869655 463.95673557509 1229.64937778746 C 465.63855375691 1232.99028687837 466.47946284782 1236.71755960564 466.47946284782 1240.83119596928 C 466.47946284782 1244.94483233291 465.64423557509 1248.68346869655 463.97378102964 1252.04710506019 C 462.30332648418 1255.41074142382 459.72946284782 1258.08687778746 456.25219012054 1260.0755141511 C 452.77491739327 1262.06415051473 448.32037193873 1263.05846869655 442.88855375691 1263.05846869655 L 425.97946284782 1263.05846869655 L 425.97946284782 1255.55846869655 L 442.61582648418 1255.55846869655 C 446.36582648418 1255.55846869655 449.37719012054 1254.91074142382 451.64991739327 1253.61528687837 C 453.922644666 1252.31983233291 455.57605375691 1250.56415051473 456.610144666 1248.34824142382 C 457.64423557509 1246.13233233291 458.16128102964 1243.62665051473 458.16128102964 1240.83119596928 C 458.16128102964 1238.03574142382 457.64423557509 1235.53574142382 456.610144666 1233.33119596928 C 455.57605375691 1231.12665051473 453.91128102964 1229.39369596928 451.61582648418 1228.13233233291 C 449.32037193873 1226.87096869655 446.27491739327 1226.24028687837 442.47946284782 1226.24028687837 L 427.61582648418 1226.24028687837 L 427.61582648418 1288.55846869655 L 419.16128102964 1288.55846869655 Z M 484.91582648418 1288.55846869655 L 484.91582648418 1218.74028687837 L 508.50673557509 1218.74028687837 C 513.96128102964 1218.74028687837 518.43855375691 1219.666423242 521.93855375691 1221.51869596928 C 525.43855375691 1223.37096869655 528.02946284782 1225.91074142382 529.71128102964 1229.1380141511 C 531.39309921145 1232.36528687837 532.23400830236 1236.03574142382 532.23400830236 1240.14937778746 C 532.23400830236 1244.2630141511 531.39309921145 1247.91074142382 529.71128102964 1251.09255960564 C 528.02946284782 1254.27437778746 525.44991739327 1256.76869596928 521.972644666 1258.5755141511 C 518.49537193873 1260.38233233291 514.05219012054 1261.28574142382 508.64309921145 1261.28574142382 L 489.55219012054 1261.28574142382 L 489.55219012054 1253.64937778746 L 508.37037193873 1253.64937778746 C 512.097644666 1253.64937778746 515.10332648418 1253.103923242 517.38741739327 1252.0130141511 C 519.67150830236 1250.92210506019 521.33059921145 1249.37096869655 522.36469012054 1247.35960506019 C 523.39878102964 1245.34824142382 523.91582648418 1242.94483233291 523.91582648418 1240.14937778746 C 523.91582648418 1237.353923242 523.39309921145 1234.91074142382 522.347644666 1232.81983233291 C 521.30219012054 1230.728923242 519.63173557509 1229.10960506019 517.33628102964 1227.96187778746 C 515.04082648418 1226.81415051473 512.00673557509 1226.24028687837 508.23400830236 1226.24028687837 L 493.37037193873 1226.24028687837 L 493.37037193873 1288.55846869655 L 484.91582648418 1288.55846869655 Z M 517.77946284782 1257.19483233291 L 534.96128102964 1288.55846869655 L 525.14309921145 1288.55846869655 L 508.23400830236 1257.19483233291 L 517.77946284782 1257.19483233291 Z M 609.98855375691 1253.64937778746 C 609.98855375691 1261.0130141511 608.65900830236 1267.37665051473 605.99991739327 1272.74028687837 C 603.34082648418 1278.103923242 599.69309921145 1282.24028687837 595.05673557509 1285.14937778746 C 590.42037193873 1288.05846869655 585.12491739327 1289.5130141511 579.17037193873 1289.5130141511 C 573.21582648418 1289.5130141511 567.92037193873 1288.05846869655 563.28400830236 1285.14937778746 C 558.647644666 1282.24028687837 554.99991739327 1278.103923242 552.34082648418 1272.74028687837 C 549.68173557509 1267.37665051473 548.35219012054 1261.0130141511 548.35219012054 1253.64937778746 C 548.35219012054 1246.28574142382 549.68173557509 1239.92210506019 552.34082648418 1234.55846869655 C 554.99991739327 1229.19483233291 558.647644666 1225.05846869655 563.28400830236 1222.14937778746 C 567.92037193873 1219.24028687837 573.21582648418 1217.78574142382 579.17037193873 1217.78574142382 C 585.12491739327 1217.78574142382 590.42037193873 1219.24028687837 595.05673557509 1222.14937778746 C 599.69309921145 1225.05846869655 603.34082648418 1229.19483233291 605.99991739327 1234.55846869655 C 608.65900830236 1239.92210506019 609.98855375691 1246.28574142382 609.98855375691 1253.64937778746 Z M 601.80673557509 1253.64937778746 C 601.80673557509 1247.603923242 600.80105375691 1242.50165051473 598.78969012054 1238.34255960564 C 596.77832648418 1234.18346869655 594.06241739327 1231.03574142382 590.64196284782 1228.89937778746 C 587.22150830236 1226.7630141511 583.397644666 1225.69483233291 579.17037193873 1225.69483233291 C 574.94309921145 1225.69483233291 571.11923557509 1226.7630141511 567.69878102964 1228.89937778746 C 564.27832648418 1231.03574142382 561.56241739327 1234.18346869655 559.55105375691 1238.34255960564 C 557.53969012054 1242.50165051473 556.53400830236 1247.603923242 556.53400830236 1253.64937778746 C 556.53400830236 1259.69483233291 557.53969012054 1264.79710506019 559.55105375691 1268.95619596928 C 561.56241739327 1273.11528687837 564.27832648418 1276.2630141511 567.69878102964 1278.39937778746 C 571.11923557509 1280.53574142382 574.94309921145 1281.603923242 579.17037193873 1281.603923242 C 583.397644666 1281.603923242 587.22150830236 1280.53574142382 590.64196284782 1278.39937778746 C 594.06241739327 1276.2630141511 596.77832648418 1273.11528687837 598.78969012054 1268.95619596928 C 600.80105375691 1264.79710506019 601.80673557509 1259.69483233291 601.80673557509 1253.64937778746 Z M 667.15219012054 1236.19483233291 C 666.74309921145 1232.74028687837 665.08400830236 1230.05846869655 662.17491739327 1228.14937778746 C 659.26582648418 1226.24028687837 655.697644666 1225.28574142382 651.47037193873 1225.28574142382 C 648.37946284782 1225.28574142382 645.68059921145 1225.78574142382 643.37378102964 1226.78574142382 C 641.06696284782 1227.78574142382 639.27150830236 1229.16074142382 637.98741739327 1230.91074142382 C 636.70332648418 1232.66074142382 636.06128102964 1234.64937778746 636.06128102964 1236.87665051473 C 636.06128102964 1238.74028687837 636.510144666 1240.33687778746 637.40787193873 1241.666423242 C 638.30559921145 1242.99596869655 639.45900830236 1244.09824142382 640.86809921145 1244.97324142382 C 642.27719012054 1245.84824142382 643.75446284782 1246.56415051473 645.29991739327 1247.12096869655 C 646.84537193873 1247.67778687837 648.26582648418 1248.12665051473 649.56128102964 1248.46755960564 L 656.65219012054 1250.37665051473 C 658.47037193873 1250.853923242 660.49878102964 1251.5130141511 662.73741739327 1252.353923242 C 664.97605375691 1253.19483233291 667.12378102964 1254.33687778746 669.18059921145 1255.78005960564 C 671.23741739327 1257.22324142382 672.93628102964 1259.06983233291 674.27719012054 1261.31983233291 C 675.61809921145 1263.56983233291 676.28855375691 1266.33119596928 676.28855375691 1269.603923242 C 676.28855375691 1273.37665051473 675.30559921145 1276.78574142382 673.33969012054 1279.83119596928 C 671.37378102964 1282.87665051473 668.510144666 1285.29710506019 664.74878102964 1287.09255960564 C 660.98741739327 1288.8880141511 656.42491739327 1289.78574142382 651.06128102964 1289.78574142382 C 646.06128102964 1289.78574142382 641.73741739327 1288.978923242 638.08969012054 1287.36528687837 C 634.44196284782 1285.75165051473 631.57832648418 1283.50165051473 629.49878102964 1280.61528687837 C 627.41923557509 1277.728923242 626.24309921145 1274.37665051473 625.97037193873 1270.55846869655 L 634.697644666 1270.55846869655 C 634.92491739327 1273.19483233291 635.81696284782 1275.37096869655 637.37378102964 1277.08687778746 C 638.93059921145 1278.80278687837 640.90787193873 1280.0755141511 643.30559921145 1280.90505960564 C 645.70332648418 1281.73460506019 648.28855375691 1282.14937778746 651.06128102964 1282.14937778746 C 654.28855375691 1282.14937778746 657.18628102964 1281.62096869655 659.75446284782 1280.56415051473 C 662.322644666 1279.50733233291 664.35673557509 1278.03005960564 665.85673557509 1276.13233233291 C 667.35673557509 1274.23460506019 668.10673557509 1272.0130141511 668.10673557509 1269.46755960564 C 668.10673557509 1267.14937778746 667.45900830236 1265.2630141511 666.16355375691 1263.80846869655 C 664.86809921145 1262.353923242 663.16355375691 1261.17210506019 661.04991739327 1260.2630141511 C 658.93628102964 1259.353923242 656.65219012054 1258.55846869655 654.197644666 1257.87665051473 L 645.60673557509 1255.42210506019 C 640.15219012054 1253.853923242 635.83400830236 1251.61528687837 632.65219012054 1248.70619596928 C 629.47037193873 1245.79710506019 627.87946284782 1241.99028687837 627.87946284782 1237.28574142382 C 627.87946284782 1233.37665051473 628.94196284782 1229.96187778746 631.06696284782 1227.041423242 C 633.19196284782 1224.12096869655 636.05559921145 1221.84824142382 639.65787193873 1220.22324142382 C 643.260144666 1218.59824142382 647.28855375691 1217.78574142382 651.74309921145 1217.78574142382 C 656.24309921145 1217.78574142382 660.24309921145 1218.58687778746 663.74309921145 1220.18915051473 C 667.24309921145 1221.791423242 670.02150830236 1223.978923242 672.07832648418 1226.75165051473 C 674.135144666 1229.52437778746 675.22037193873 1232.67210506019 675.33400830236 1236.19483233291 L 667.15219012054 1236.19483233291 Z M 691.17946284782 1226.24028687837 L 691.17946284782 1218.74028687837 L 743.54309921145 1218.74028687837 L 743.54309921145 1226.24028687837 L 721.58855375691 1226.24028687837 L 721.58855375691 1288.55846869655 L 713.13400830236 1288.55846869655 L 713.13400830236 1226.24028687837 L 691.17946284782 1226.24028687837 Z M 756.11582648418 1288.55846869655 L 747.25219012054 1288.55846869655 L 772.88855375691 1218.74028687837 L 781.61582648418 1218.74028687837 L 807.25219012054 1288.55846869655 L 798.38855375691 1288.55846869655 L 777.52491739327 1229.78574142382 L 776.97946284782 1229.78574142382 L 756.11582648418 1288.55846869655 Z M 759.38855375691 1261.28574142382 L 795.11582648418 1261.28574142382 L 795.11582648418 1268.78574142382 L 759.38855375691 1268.78574142382 L 759.38855375691 1261.28574142382 Z M 810.96128102964 1226.24028687837 L 810.96128102964 1218.74028687837 L 863.32491739327 1218.74028687837 L 863.32491739327 1226.24028687837 L 841.37037193873 1226.24028687837 L 841.37037193873 1288.55846869655 L 832.91582648418 1288.55846869655 L 832.91582648418 1226.24028687837 L 810.96128102964 1226.24028687837 Z M 881.21582648418 1288.55846869655 L 881.21582648418 1218.74028687837 L 923.35219012054 1218.74028687837 L 923.35219012054 1226.24028687837 L 889.67037193873 1226.24028687837 L 889.67037193873 1249.83119596928 L 921.17037193873 1249.83119596928 L 921.17037193873 1257.33119596928 L 889.67037193873 1257.33119596928 L 889.67037193873 1281.05846869655 L 923.897644666 1281.05846869655 L 923.897644666 1288.55846869655 L 881.21582648418 1288.55846869655 Z M 1013.40673557509 1236.19483233291 C 1012.997644666 1232.74028687837 1011.33855375691 1230.05846869655 1008.42946284782 1228.14937778746 C 1005.52037193873 1226.24028687837 1001.95219012054 1225.28574142382 997.72491739327 1225.28574142382 C 994.63400830236 1225.28574142382 991.935144666 1225.78574142382 989.62832648418 1226.78574142382 C 987.32150830236 1227.78574142382 985.52605375691 1229.16074142382 984.24196284782 1230.91074142382 C 982.95787193873 1232.66074142382 982.31582648418 1234.64937778746 982.31582648418 1236.87665051473 C 982.31582648418 1238.74028687837 982.76469012054 1240.33687778746 983.66241739327 1241.666423242 C 984.560144666 1242.99596869655 985.71355375691 1244.09824142382 987.122644666 1244.97324142382 C 988.53173557509 1245.84824142382 990.00900830236 1246.56415051473 991.55446284782 1247.12096869655 C 993.09991739327 1247.67778687837 994.52037193873 1248.12665051473 995.81582648418 1248.46755960564 L 1002.90673557509 1250.37665051473 C 1004.72491739327 1250.853923242 1006.75332648418 1251.5130141511 1008.99196284782 1252.353923242 C 1011.23059921145 1253.19483233291 1013.37832648418 1254.33687778746 1015.435144666 1255.78005960564 C 1017.49196284782 1257.22324142382 1019.19082648418 1259.06983233291 1020.53173557509 1261.31983233291 C 1021.872644666 1263.56983233291 1022.54309921145 1266.33119596928 1022.54309921145 1269.603923242 C 1022.54309921145 1273.37665051473 1021.560144666 1276.78574142382 1019.59423557509 1279.83119596928 C 1017.62832648418 1282.87665051473 1014.76469012054 1285.29710506019 1011.00332648418 1287.09255960564 C 1007.24196284782 1288.8880141511 1002.67946284782 1289.78574142382 997.31582648418 1289.78574142382 C 992.31582648418 1289.78574142382 987.99196284782 1288.978923242 984.34423557509 1287.36528687837 C 980.69650830236 1285.75165051473 977.83287193873 1283.50165051473 975.75332648418 1280.61528687837 C 973.67378102964 1277.728923242 972.497644666 1274.37665051473 972.22491739327 1270.55846869655 L 980.95219012054 1270.55846869655 C 981.17946284782 1273.19483233291 982.07150830236 1275.37096869655 983.62832648418 1277.08687778746 C 985.185144666 1278.80278687837 987.16241739327 1280.0755141511 989.560144666 1280.90505960564 C 991.95787193873 1281.73460506019 994.54309921145 1282.14937778746 997.31582648418 1282.14937778746 C 1000.54309921145 1282.14937778746 1003.44082648418 1281.62096869655 1006.00900830236 1280.56415051473 C 1008.57719012054 1279.50733233291 1010.61128102964 1278.03005960564 1012.11128102964 1276.13233233291 C 1013.61128102964 1274.23460506019 1014.36128102964 1272.0130141511 1014.36128102964 1269.46755960564 C 1014.36128102964 1267.14937778746 1013.71355375691 1265.2630141511 1012.41809921145 1263.80846869655 C 1011.122644666 1262.353923242 1009.41809921145 1261.17210506019 1007.30446284782 1260.2630141511 C 1005.19082648418 1259.353923242 1002.90673557509 1258.55846869655 1000.45219012054 1257.87665051473 L 991.86128102964 1255.42210506019 C 986.40673557509 1253.853923242 982.08855375691 1251.61528687837 978.90673557509 1248.70619596928 C 975.72491739327 1245.79710506019 974.13400830236 1241.99028687837 974.13400830236 1237.28574142382 C 974.13400830236 1233.37665051473 975.19650830236 1229.96187778746 977.32150830236 1227.041423242 C 979.44650830236 1224.12096869655 982.310144666 1221.84824142382 985.91241739327 1220.22324142382 C 989.51469012054 1218.59824142382 993.54309921145 1217.78574142382 997.997644666 1217.78574142382 C 1002.497644666 1217.78574142382 1006.497644666 1218.58687778746 1009.997644666 1220.18915051473 C 1013.497644666 1221.791423242 1016.27605375691 1223.978923242 1018.33287193873 1226.75165051473 C 1020.38969012054 1229.52437778746 1021.47491739327 1232.67210506019 1021.58855375691 1236.19483233291 L 1013.40673557509 1236.19483233291 Z M 1100.16128102964 1253.64937778746 C 1100.16128102964 1261.0130141511 1098.83173557509 1267.37665051473 1096.172644666 1272.74028687837 C 1093.51355375691 1278.103923242 1089.86582648418 1282.24028687837 1085.22946284782 1285.14937778746 C 1080.59309921145 1288.05846869655 1075.297644666 1289.5130141511 1069.34309921145 1289.5130141511 C 1063.38855375691 1289.5130141511 1058.09309921145 1288.05846869655 1053.45673557509 1285.14937778746 C 1048.82037193873 1282.24028687837 1045.172644666 1278.103923242 1042.51355375691 1272.74028687837 C 1039.85446284782 1267.37665051473 1038.52491739327 1261.0130141511 1038.52491739327 1253.64937778746 C 1038.52491739327 1246.28574142382 1039.85446284782 1239.92210506019 1042.51355375691 1234.55846869655 C 1045.172644666 1229.19483233291 1048.82037193873 1225.05846869655 1053.45673557509 1222.14937778746 C 1058.09309921145 1219.24028687837 1063.38855375691 1217.78574142382 1069.34309921145 1217.78574142382 C 1075.297644666 1217.78574142382 1080.59309921145 1219.24028687837 1085.22946284782 1222.14937778746 C 1089.86582648418 1225.05846869655 1093.51355375691 1229.19483233291 1096.172644666 1234.55846869655 C 1098.83173557509 1239.92210506019 1100.16128102964 1246.28574142382 1100.16128102964 1253.64937778746 Z M 1091.97946284782 1253.64937778746 C 1091.97946284782 1247.603923242 1090.97378102964 1242.50165051473 1088.96241739327 1238.34255960564 C 1086.95105375691 1234.18346869655 1084.235144666 1231.03574142382 1080.81469012054 1228.89937778746 C 1077.39423557509 1226.7630141511 1073.57037193873 1225.69483233291 1069.34309921145 1225.69483233291 C 1065.11582648418 1225.69483233291 1061.29196284782 1226.7630141511 1057.87150830236 1228.89937778746 C 1054.45105375691 1231.03574142382 1051.735144666 1234.18346869655 1049.72378102964 1238.34255960564 C 1047.71241739327 1242.50165051473 1046.70673557509 1247.603923242 1046.70673557509 1253.64937778746 C 1046.70673557509 1259.69483233291 1047.71241739327 1264.79710506019 1049.72378102964 1268.95619596928 C 1051.735144666 1273.11528687837 1054.45105375691 1276.2630141511 1057.87150830236 1278.39937778746 C 1061.29196284782 1280.53574142382 1065.11582648418 1281.603923242 1069.34309921145 1281.603923242 C 1073.57037193873 1281.603923242 1077.39423557509 1280.53574142382 1080.81469012054 1278.39937778746 C 1084.235144666 1276.2630141511 1086.95105375691 1273.11528687837 1088.96241739327 1268.95619596928 C 1090.97378102964 1264.79710506019 1091.97946284782 1259.69483233291 1091.97946284782 1253.64937778746 Z M 1119.14309921145 1288.55846869655 L 1119.14309921145 1218.74028687837 L 1127.597644666 1218.74028687837 L 1127.597644666 1281.05846869655 L 1160.05219012054 1281.05846869655 L 1160.05219012054 1288.55846869655 L 1119.14309921145 1288.55846869655 Z M 1223.76128102964 1218.74028687837 L 1232.21582648418 1218.74028687837 L 1232.21582648418 1264.96755960564 C 1232.21582648418 1269.74028687837 1231.09650830236 1273.99596869655 1228.85787193873 1277.73460506019 C 1226.61923557509 1281.47324142382 1223.46582648418 1284.416423242 1219.397644666 1286.56415051473 C 1215.32946284782 1288.71187778746 1210.55673557509 1289.78574142382 1205.07946284782 1289.78574142382 C 1199.60219012054 1289.78574142382 1194.82946284782 1288.71187778746 1190.76128102964 1286.56415051473 C 1186.69309921145 1284.416423242 1183.53969012054 1281.47324142382 1181.30105375691 1277.73460506019 C 1179.06241739327 1273.99596869655 1177.94309921145 1269.74028687837 1177.94309921145 1264.96755960564 L 1177.94309921145 1218.74028687837 L 1186.397644666 1218.74028687837 L 1186.397644666 1264.28574142382 C 1186.397644666 1267.69483233291 1187.147644666 1270.72324142382 1188.647644666 1273.37096869655 C 1190.147644666 1276.01869596928 1192.28969012054 1278.09824142382 1195.07378102964 1279.60960506019 C 1197.85787193873 1281.12096869655 1201.19309921145 1281.87665051473 1205.07946284782 1281.87665051473 C 1208.96582648418 1281.87665051473 1212.30673557509 1281.12096869655 1215.10219012054 1279.60960506019 C 1217.897644666 1278.09824142382 1220.03969012054 1276.01869596928 1221.52832648418 1273.37096869655 C 1223.01696284782 1270.72324142382 1223.76128102964 1267.69483233291 1223.76128102964 1264.28574142382 L 1223.76128102964 1218.74028687837 Z M 1250.10673557509 1226.24028687837 L 1250.10673557509 1218.74028687837 L 1302.47037193873 1218.74028687837 L 1302.47037193873 1226.24028687837 L 1280.51582648418 1226.24028687837 L 1280.51582648418 1288.55846869655 L 1272.06128102964 1288.55846869655 L 1272.06128102964 1226.24028687837 L 1250.10673557509 1226.24028687837 Z M 1328.81582648418 1218.74028687837 L 1328.81582648418 1288.55846869655 L 1320.36128102964 1288.55846869655 L 1320.36128102964 1218.74028687837 L 1328.81582648418 1218.74028687837 Z M 1409.43400830236 1253.64937778746 C 1409.43400830236 1261.0130141511 1408.10446284782 1267.37665051473 1405.44537193873 1272.74028687837 C 1402.78628102964 1278.103923242 1399.13855375691 1282.24028687837 1394.50219012054 1285.14937778746 C 1389.86582648418 1288.05846869655 1384.57037193873 1289.5130141511 1378.61582648418 1289.5130141511 C 1372.66128102964 1289.5130141511 1367.36582648418 1288.05846869655 1362.72946284782 1285.14937778746 C 1358.09309921145 1282.24028687837 1354.44537193873 1278.103923242 1351.78628102964 1272.74028687837 C 1349.12719012054 1267.37665051473 1347.797644666 1261.0130141511 1347.797644666 1253.64937778746 C 1347.797644666 1246.28574142382 1349.12719012054 1239.92210506019 1351.78628102964 1234.55846869655 C 1354.44537193873 1229.19483233291 1358.09309921145 1225.05846869655 1362.72946284782 1222.14937778746 C 1367.36582648418 1219.24028687837 1372.66128102964 1217.78574142382 1378.61582648418 1217.78574142382 C 1384.57037193873 1217.78574142382 1389.86582648418 1219.24028687837 1394.50219012054 1222.14937778746 C 1399.13855375691 1225.05846869655 1402.78628102964 1229.19483233291 1405.44537193873 1234.55846869655 C 1408.10446284782 1239.92210506019 1409.43400830236 1246.28574142382 1409.43400830236 1253.64937778746 Z M 1401.25219012054 1253.64937778746 C 1401.25219012054 1247.603923242 1400.24650830236 1242.50165051473 1398.235144666 1238.34255960564 C 1396.22378102964 1234.18346869655 1393.50787193873 1231.03574142382 1390.08741739327 1228.89937778746 C 1386.66696284782 1226.7630141511 1382.84309921145 1225.69483233291 1378.61582648418 1225.69483233291 C 1374.38855375691 1225.69483233291 1370.56469012054 1226.7630141511 1367.14423557509 1228.89937778746 C 1363.72378102964 1231.03574142382 1361.00787193873 1234.18346869655 1358.99650830236 1238.34255960564 C 1356.985144666 1242.50165051473 1355.97946284782 1247.603923242 1355.97946284782 1253.64937778746 C 1355.97946284782 1259.69483233291 1356.985144666 1264.79710506019 1358.99650830236 1268.95619596928 C 1361.00787193873 1273.11528687837 1363.72378102964 1276.2630141511 1367.14423557509 1278.39937778746 C 1370.56469012054 1280.53574142382 1374.38855375691 1281.603923242 1378.61582648418 1281.603923242 C 1382.84309921145 1281.603923242 1386.66696284782 1280.53574142382 1390.08741739327 1278.39937778746 C 1393.50787193873 1276.2630141511 1396.22378102964 1273.11528687837 1398.235144666 1268.95619596928 C 1400.24650830236 1264.79710506019 1401.25219012054 1259.69483233291 1401.25219012054 1253.64937778746 Z M 1483.77946284782 1218.74028687837 L 1483.77946284782 1288.55846869655 L 1475.597644666 1288.55846869655 L 1437.55219012054 1233.74028687837 L 1436.87037193873 1233.74028687837 L 1436.87037193873 1288.55846869655 L 1428.41582648418 1288.55846869655 L 1428.41582648418 1218.74028687837 L 1436.597644666 1218.74028687837 L 1474.77946284782 1273.69483233291 L 1475.46128102964 1273.69483233291 L 1475.46128102964 1218.74028687837 L 1483.77946284782 1218.74028687837 Z"/></svg>